<svg xmlns="http://www.w3.org/2000/svg" width="1327" height="168.427" viewBox="0 0 1327 168.427">
  <g>
    <g>
      <g>
        <path d="M95.144,167.928c-30.261,0-50.127-3.438-62.52-10.817-11.543-6.873-16.919-17.553-16.919-33.613,0-7.837,1.107-17.308,3.815-32.621H163.6c18.265,5.386,26.414,15.519,26.414,32.851C190.018,153.47,158.985,167.928,95.144,167.928Zm.62-63.667c-.8,0-1.644.025-2.492.075l-.471.027v23l.4.08a29.29,29.29,0,0,0,6.088.47c9.88,0,13.4-5.972,13.4-11.56C112.692,108.669,106.522,104.261,95.764,104.261Z" fill="#cafdff"/>
        <path d="M163.532,91.377c18.213,5.386,25.986,15.068,25.986,32.351,0,13.7-6.441,23.864-19.692,31.062-15.437,8.386-40.564,12.637-74.682,12.637-30.167,0-49.952-3.414-62.264-10.745C21.5,149.908,16.206,139.364,16.206,123.5c0-7.739,1.084-17.084,3.733-32.121H163.532M99.291,128.414c10.249,0,13.9-6.229,13.9-12.059a10.991,10.991,0,0,0-4.788-9.425c-3.024-2.1-7.276-3.17-12.639-3.17-.815,0-1.663.026-2.521.077l-.942.055v23.881l.8.161a29.706,29.706,0,0,0,6.186.48m64.385-38.037H19.1c-2.541,14.309-3.895,24.487-3.895,33.121,0,30.875,19.12,44.929,79.938,44.929,73.258,0,95.374-19.123,95.374-44.7,0-16.647-7.151-27.567-26.842-33.351ZM99.291,127.414a28.975,28.975,0,0,1-5.99-.46V104.835q1.267-.075,2.463-.075c10.277,0,16.427,4.11,16.427,11.6,0,5.99-3.915,11.059-12.9,11.059Z"/>
      </g>
      <g>
        <path d="M350.636,167.928c-13.45,0-23.967-3.884-30.412-11.233-5.928-6.759-8.163-16.046-6.643-27.6l.074-.566h-5.741l-.128.309c-10.271,24.844-29,39.092-51.372,39.092-17.114,0-29.8-4.846-37.711-14.4-11.412-13.79-10.455-34.29-7.642-49.057l2.6-13.59h77.382a105.645,105.645,0,0,0-1.265,11.885c0,4.007,2.565,5.8,5.107,5.8,4.518,0,7.941-5.949,10.177-17.684h75.4l-.829,4.184c-1.123,5.366-.669,9.35,1.352,11.837,1.641,2.021,4.3,3.045,7.893,3.045a16.588,16.588,0,0,0,10.578-3.315,54.219,54.219,0,0,1,2.744,16.408c0,12.938-4.5,23.976-13,31.921C380.115,163.442,366.78,167.928,350.636,167.928Z" fill="#cafdff"/>
        <path d="M379.854,91.377l-.71,3.576c-1.156,5.526-.667,9.651,1.453,12.261,1.741,2.143,4.527,3.23,8.282,3.23a17.421,17.421,0,0,0,10.31-2.984,53.017,53.017,0,0,1,2.512,15.577c0,12.795-4.441,23.706-12.843,31.555-8.989,8.4-22.206,12.835-38.222,12.835-13.3,0-23.689-3.825-30.036-11.062-5.829-6.646-8.024-15.8-6.524-27.207l.149-1.131h-6.646l-.255.618c-4.887,11.82-12.009,21.6-20.6,28.279a48.333,48.333,0,0,1-30.313,10.5c-16.958,0-29.516-4.784-37.326-14.221-11.288-13.641-10.328-33.983-7.536-48.645l2.524-13.184h76.4a99.648,99.648,0,0,0-1.193,11.385c0,4.351,2.817,6.3,5.608,6.3,4.737,0,8.3-5.949,10.589-17.684h74.379m1.218-1H304.648c-1.929,10.368-5.039,17.684-9.762,17.684-2.535,0-4.608-1.844-4.608-5.3a112.461,112.461,0,0,1,1.339-12.385H213.25l-2.68,14c-6.451,33.871,2.994,64.054,45.844,64.054,23.268,0,41.927-15.437,51.834-39.4h4.837c-3.455,26.266,12.9,39.4,37.551,39.4,34.326,0,52.065-19.816,52.065-45.39a55.662,55.662,0,0,0-3-17.28c-2.535,2.3-6.221,3.687-10.827,3.687-7.372,0-10.829-4.378-8.756-14.286l.949-4.781Z"/>
      </g>
      <g>
        <path d="M544.39,167.928c-18.436,0-27.622-8.657-35.745-21.655l-19.724-34.4-.089,1.694c-1.061,20.162-.652,35.3,1.328,49.006-9.6,3.556-21.5,5.359-35.385,5.359-14.654,0-25.763-4.447-33.02-13.215-9.066-10.955-11.81-28.8-7.726-50.246l2.6-13.59h162.84l-5.4,52.614C572.244,160.162,562.813,167.928,544.39,167.928Z" fill="#cafdff"/>
        <path d="M578.916,91.377l-5.342,52.057c-1.794,16.369-11.068,23.993-29.184,23.993-18.206,0-27.287-8.562-35.3-21.386L490.2,113.093l-1.688-2.944-.178,3.389c-1.053,20-.661,35.069,1.275,48.7-9.48,3.442-21.194,5.187-34.834,5.187-14.5,0-25.477-4.385-32.634-13.033-8.969-10.839-11.675-28.536-7.62-49.833l2.524-13.184H578.916m1.108-1H416.218l-2.68,14c-6.45,33.871,3,64.054,41.236,64.054,9.907,0,23.729-.922,35.939-5.53-2.3-15.668-2.3-31.8-1.382-49.307l18.89,32.948c8.063,12.9,17.508,21.889,36.169,21.889,18.89,0,28.335-8.064,30.178-24.885l5.456-53.165Z"/>
      </g>
      <g>
        <path d="M685.615,167.928c-30.259,0-50.125-3.438-62.518-10.817-11.542-6.873-16.918-17.553-16.918-33.613,0-7.841,1.106-17.312,3.813-32.621H754.076c18.267,5.386,26.415,15.52,26.415,32.851C780.491,153.47,749.457,167.928,685.615,167.928Zm.622-63.667c-.8,0-1.643.025-2.492.075l-.47.027v23l.4.08a29.29,29.29,0,0,0,6.088.47c9.878,0,13.4-5.972,13.4-11.56C703.162,108.669,696.993,104.261,686.237,104.261Z" fill="#cafdff"/>
        <path d="M754,91.377c18.214,5.387,25.988,15.069,25.988,32.351,0,13.7-6.442,23.863-19.694,31.062-15.438,8.386-40.564,12.637-74.682,12.637-30.166,0-49.951-3.414-62.263-10.745-11.376-6.774-16.674-17.318-16.674-33.184,0-7.74,1.084-17.085,3.733-32.121H754m-64.239,37.037c10.246,0,13.9-6.229,13.9-12.059a10.989,10.989,0,0,0-4.789-9.425c-3.023-2.1-7.274-3.17-12.636-3.17-.815,0-1.663.026-2.521.077l-.941.055v23.881l.8.161a29.71,29.71,0,0,0,6.187.48m64.383-38.037H609.574c-2.541,14.309-3.895,24.487-3.895,33.121,0,30.875,19.121,44.929,79.937,44.929,73.257,0,95.376-19.123,95.376-44.7,0-16.647-7.153-27.567-26.844-33.351Zm-64.383,37.037a28.967,28.967,0,0,1-5.99-.46V104.835q1.266-.075,2.462-.075c10.275,0,16.425,4.11,16.425,11.6,0,5.99-3.915,11.059-12.9,11.059Z"/>
      </g>
      <g>
        <path d="M941.105,167.928c-13.451,0-23.967-3.884-30.412-11.233-5.928-6.759-8.163-16.046-6.641-27.6l.074-.566h-5.74l-.128.309c-10.272,24.844-29,39.092-51.372,39.092-17.115,0-29.8-4.846-37.713-14.4-11.411-13.79-10.453-34.289-7.641-49.057l2.6-13.59h77.383a105.7,105.7,0,0,0-1.266,11.885c0,4.007,2.565,5.8,5.106,5.8,4.517,0,7.941-5.949,10.177-17.684h75.4l-.83,4.184c-1.122,5.366-.667,9.351,1.353,11.837,1.642,2.021,4.3,3.045,7.894,3.045a16.582,16.582,0,0,0,10.577-3.315,54.174,54.174,0,0,1,2.746,16.408c0,12.938-4.5,23.976-13,31.921C970.585,163.442,957.25,167.928,941.105,167.928Z" fill="#cafdff"/>
        <path d="M970.323,91.377l-.71,3.576c-1.155,5.526-.666,9.652,1.455,12.261,1.741,2.143,4.527,3.23,8.281,3.23a17.413,17.413,0,0,0,10.309-2.984,52.981,52.981,0,0,1,2.515,15.577c0,12.794-4.442,23.706-12.845,31.555-8.99,8.4-22.207,12.835-38.223,12.835-13.3,0-23.689-3.825-30.036-11.062-5.829-6.646-8.023-15.8-6.522-27.207l.149-1.131h-6.645l-.255.618c-4.887,11.82-12.01,21.6-20.6,28.279a48.33,48.33,0,0,1-30.312,10.5c-16.959,0-29.518-4.785-37.328-14.222-11.287-13.64-10.327-33.982-7.534-48.644l2.523-13.184h76.395a99.83,99.83,0,0,0-1.192,11.385c0,4.351,2.815,6.3,5.605,6.3,4.737,0,8.3-5.949,10.591-17.684h74.377m1.218-1H895.118c-1.929,10.368-5.039,17.684-9.763,17.684-2.533,0-4.605-1.844-4.605-5.3a112.461,112.461,0,0,1,1.339-12.385H803.72l-2.678,14c-6.452,33.871,2.992,64.054,45.844,64.054,23.267,0,41.926-15.437,51.834-39.4h4.836c-3.457,26.266,12.9,39.4,37.549,39.4,34.326,0,52.068-19.816,52.068-45.39a55.644,55.644,0,0,0-3-17.28c-2.533,2.3-6.218,3.687-10.826,3.687-7.372,0-10.828-4.378-8.757-14.286l.949-4.781Z"/>
      </g>
      <g>
        <path d="M1134.861,167.928c-18.437,0-27.623-8.657-35.744-21.655l-19.727-34.4-.089,1.694c-1.06,20.168-.649,35.308,1.332,49.006-9.6,3.556-21.507,5.359-35.387,5.359-14.654,0-25.763-4.447-33.02-13.216-9.067-10.955-11.811-28.8-7.728-50.245l2.6-13.59h162.839l-5.4,52.614C1162.716,160.162,1153.284,167.928,1134.861,167.928Z" fill="#cafdff"/>
        <path d="M1169.386,91.377l-5.343,52.057c-1.791,16.369-11.064,23.993-29.183,23.993-18.206,0-27.287-8.562-35.3-21.387l-18.893-32.947-1.688-2.944-.178,3.389c-1.052,20-.659,35.074,1.278,48.7-9.482,3.442-21.2,5.187-34.834,5.187-14.5,0-25.478-4.385-32.635-13.033-8.97-10.839-11.676-28.537-7.622-49.833l2.526-13.184h161.871m1.108-1H1006.688l-2.681,14c-6.449,33.871,3,64.054,41.239,64.054,9.9,0,23.726-.922,35.939-5.53-2.3-15.668-2.3-31.8-1.385-49.307l18.893,32.948c8.062,12.9,17.508,21.889,36.167,21.889,18.89,0,28.337-8.064,30.177-24.885l5.457-53.165Z"/>
      </g>
      <g>
        <path d="M1249.135,167.928c-24.072,0-41.035-3.841-51.856-11.742-9.725-7.1-14.453-17.567-14.453-32a55.709,55.709,0,0,1,4.1-20.169c15.457,11.689,35.966,12.605,41.937,12.605,11.464,0,17.778-2.469,17.778-6.952,0-3.054-3.567-4.4-7.056-5.321l-17.977-4.38a61.421,61.421,0,0,1-21.008-9.095h120.029a45.275,45.275,0,0,1,4.721,21.1C1325.349,147.012,1296.858,167.928,1249.135,167.928Z" fill="#cafdff"/>
        <path d="M1320.323,91.377a44.949,44.949,0,0,1,4.526,20.6c0,16.568-6.528,30.387-18.878,39.963-13.067,10.132-32.72,15.487-56.836,15.487-23.963,0-40.829-3.809-51.561-11.645-9.587-7-14.248-17.334-14.248-31.593a54.9,54.9,0,0,1,3.827-19.376c15.516,11.408,35.767,12.312,41.71,12.312,15.9,0,18.277-4.669,18.277-7.452,0-3.394-3.755-4.839-7.445-5.81l-17.968-4.377a62.521,62.521,0,0,1-19.51-8.109h118.106m.607-1H1199.075q8.8,6.708,22.413,10.08l17.97,4.378c4.377,1.151,6.682,2.534,6.682,4.838,0,3.917-5.759,6.452-17.277,6.452-12.669,0-29.719-3.226-42.157-12.9a56.048,56.048,0,0,0-4.38,20.967c0,27.418,16.818,44.238,66.809,44.238,50.911,0,76.714-23.041,76.714-56.45a45.449,45.449,0,0,0-4.919-21.6Z"/>
      </g>
    </g>
    <g>
      <path d="M143.523,84.329c27.183-4.377,42.387-15.668,42.387-35.944C185.91,12.9,141.45,0,81.091,0S0,11.751,0,40.782A63.9,63.9,0,0,0,3.457,60.366a61.673,61.673,0,0,1,22.115-4.147C22.929,69.892,20.763,81.011,19.1,90.377H163.676a113.717,113.717,0,0,0-20.153-3.744ZM98.139,75.112a23.922,23.922,0,0,1-4.838-.231V52.993c13.822-.231,18.89,3.687,18.89,10.83C112.191,70.735,106.894,75.112,98.139,75.112Z"/>
      <path d="M340.269.922c-9.905,0-23.727.922-35.938,5.529,1.844,11.751,3,23.732,3,47.924,0,12.212-.749,25.633-2.678,36h76.424l5.041-25.4C392.794,31.105,383.118.922,340.269.922Z"/>
      <path d="M294.426,56.68c0-36.865-14.975-55.758-48.379-55.758-34.325,0-52.064,19.815-52.064,43.085a55.668,55.668,0,0,0,3,17.281c2.534-2.3,6.22-3.686,10.827-3.686,7.372,0,10.827,4.377,8.985,14.285l-3.54,18.49h78.367A243.407,243.407,0,0,0,294.426,56.68Z"/>
      <path d="M541.4.922c-9.907,0-23.729.922-35.938,5.529,2.533,15.9,3,32.487,2.533,50.229L485.414,17.972C478.5,6.682,465.6.922,449.015.922c-34.325,0-52.063,19.815-52.063,43.085a55.668,55.668,0,0,0,3,17.281c2.533-2.3,6.219-3.686,10.827-3.686,7.372,0,10.827,4.377,8.984,14.285l-3.54,18.49H580.024l2.607-25.4C586.086,30.414,579.636.922,541.4.922Z"/>
      <path d="M734,84.329c27.182-4.377,42.385-15.668,42.385-35.944C776.381,12.9,731.922,0,671.564,0s-81.09,11.751-81.09,40.782a63.945,63.945,0,0,0,3.453,19.584,61.694,61.694,0,0,1,22.119-4.147c-2.644,13.673-4.81,24.792-6.472,34.158H754.148A113.722,113.722,0,0,0,734,86.633Zm-45.385-9.217a23.893,23.893,0,0,1-4.836-.231V52.993c13.82-.231,18.887,3.687,18.887,10.83C702.662,70.735,697.365,75.112,688.611,75.112Z"/>
      <path d="M930.738.922c-9.905,0-23.726.922-35.936,5.529,1.843,11.751,3,23.732,3,47.924,0,12.212-.749,25.633-2.679,36h76.423l5.041-25.4C983.264,31.105,973.59.922,930.738.922Z"/>
      <path d="M884.9,56.68C884.9,19.815,869.922.922,836.519.922c-34.326,0-52.065,19.815-52.065,43.085a55.609,55.609,0,0,0,3,17.281c2.533-2.3,6.218-3.686,10.828-3.686,7.369,0,10.826,4.377,8.982,14.285l-3.539,18.49h78.369A243.58,243.58,0,0,0,884.9,56.68Z"/>
      <path d="M1131.865.922c-9.908,0-23.728.922-35.936,5.529,2.53,15.9,2.992,32.487,2.53,50.229l-22.574-38.708c-6.913-11.29-19.81-17.05-36.4-17.05-34.323,0-52.062,19.815-52.062,43.085a55.727,55.727,0,0,0,3,17.281c2.533-2.3,6.221-3.686,10.826-3.686,7.375,0,10.828,4.377,8.987,14.285l-3.542,18.49h163.806l2.608-25.4C1176.555,30.414,1170.107.922,1131.865.922Z"/>
      <path d="M1285.764,67.739l-24.649-5.069c-4.377-.922-6.68-2.3-6.68-4.377,0-3.687,5.528-5.991,17.274-5.991a85.636,85.636,0,0,1,49.07,16.128C1324.7,58.984,1327,49.768,1327,41.243,1327,14.286,1309.492,0,1264.8,0c-48.842,0-81.555,20.276-81.555,55.758,0,15.074,5.336,26.62,15.828,34.619H1320.93C1314.926,79.066,1303.353,71.318,1285.764,67.739Z"/>
    </g>
  </g>
</svg>
