<svg xmlns="http://www.w3.org/2000/svg" width="514.817" height="57.5" viewBox="0 0 514.817 57.5">
  <g>
    <g>
      <g>
        <path d="M47.969,28.89c9.085-1.463,14.167-5.236,14.167-12.012C62.136,5.022,47.276.71,27.1.71S0,4.636,0,14.338a21.344,21.344,0,0,0,1.155,6.544A20.633,20.633,0,0,1,8.547,19.5c-.883,4.569-1.607,8.284-2.163,11.414H54.7a38.014,38.014,0,0,0-6.735-1.251ZM32.8,25.81a8.005,8.005,0,0,1-1.616-.077V18.419C35.8,18.341,37.5,19.65,37.5,22.038,37.5,24.347,35.727,25.81,32.8,25.81Z"/>
        <path d="M113.726,1.018a35.2,35.2,0,0,0-12.011,1.847,94.739,94.739,0,0,1,1,16.015,70.464,70.464,0,0,1-.895,12.031h25.542l1.685-8.489C131.281,11.1,128.047,1.018,113.726,1.018Z"/>
        <path d="M98.4,19.65c0-12.319-5-18.632-16.169-18.632-11.472,0-17.4,6.621-17.4,14.4a18.6,18.6,0,0,0,1,5.775,5.259,5.259,0,0,1,3.619-1.232c2.463,0,3.618,1.462,3,4.774l-1.184,6.178H97.466A81.34,81.34,0,0,0,98.4,19.65Z"/>
        <path d="M180.947,1.018a35.192,35.192,0,0,0-12.011,1.847,91.481,91.481,0,0,1,.847,16.785L162.237,6.715c-2.31-3.773-6.621-5.7-12.165-5.7-11.472,0-17.4,6.621-17.4,14.4a18.6,18.6,0,0,0,1,5.775,5.257,5.257,0,0,1,3.619-1.232c2.463,0,3.618,1.462,3,4.774l-1.183,6.178h54.748l.871-8.489C195.884,10.873,193.729,1.018,180.947,1.018Z"/>
        <path d="M245.319,28.89c9.085-1.463,14.166-5.236,14.166-12.012C259.485,5.022,244.626.71,224.453.71s-27.1,3.926-27.1,13.628a21.341,21.341,0,0,0,1.154,6.544A20.633,20.633,0,0,1,205.9,19.5c-.883,4.569-1.607,8.284-2.163,11.414h48.321a38.027,38.027,0,0,0-6.736-1.251ZM230.15,25.81a8.011,8.011,0,0,1-1.616-.077V18.419c4.619-.078,6.313,1.231,6.313,3.619C234.847,24.347,233.076,25.81,230.15,25.81Z"/>
        <path d="M311.075,1.018a35.2,35.2,0,0,0-12.011,1.847,94.632,94.632,0,0,1,1,16.015,70.464,70.464,0,0,1-.895,12.031h25.543l1.684-8.489C328.631,11.1,325.4,1.018,311.075,1.018Z"/>
        <path d="M295.754,19.65c0-12.319-5-18.632-16.169-18.632-11.473,0-17.4,6.621-17.4,14.4a18.569,18.569,0,0,0,1,5.775,5.256,5.256,0,0,1,3.619-1.232c2.463,0,3.618,1.462,3,4.774l-1.183,6.178h26.192A81.323,81.323,0,0,0,295.754,19.65Z"/>
        <path d="M378.3,1.018a35.185,35.185,0,0,0-12.011,1.847,91.571,91.571,0,0,1,.846,16.785L359.587,6.715c-2.311-3.773-6.621-5.7-12.166-5.7-11.472,0-17.4,6.621-17.4,14.4a18.624,18.624,0,0,0,1,5.775,5.261,5.261,0,0,1,3.619-1.232c2.464,0,3.619,1.462,3,4.774l-1.184,6.178h54.748l.871-8.489C393.233,10.873,391.078,1.018,378.3,1.018Z"/>
        <path d="M429.733,23.346,421.5,21.652c-1.463-.308-2.232-.77-2.232-1.462,0-1.232,1.847-2,5.773-2a28.629,28.629,0,0,1,16.4,5.389,24.174,24.174,0,0,0,2.079-9.085c0-9.009-5.852-13.782-20.788-13.782C406.4.71,395.47,7.485,395.47,19.342c0,5.038,1.783,8.9,5.29,11.569h40.727C439.48,27.131,435.612,24.542,429.733,23.346Z"/>
      </g>
      <g>
        <g>
          <path d="M33.186,42.788a11.715,11.715,0,0,1-1.5-.077V36.222c.109,0,.217,0,.323,0,1.863,0,4.99.438,4.99,3.374C37,41.593,35.572,42.788,33.186,42.788Z" fill="#cafdff"/>
          <path d="M32.184,36.719c1.69.027,4.313.458,4.313,2.873,0,1.739-1.176,2.7-3.311,2.7-.416,0-.741-.012-1-.03V36.719m-.177-1q-.4,0-.823.025v7.391a9.621,9.621,0,0,0,2,.154c3,0,4.311-1.694,4.311-3.7,0-2.5-2.056-3.874-5.49-3.874Z"/>
        </g>
        <g>
          <path d="M230.536,42.788a11.715,11.715,0,0,1-1.5-.077V36.222c.11,0,.217,0,.324,0,1.863,0,4.989.438,4.989,3.374C234.347,41.593,232.922,42.788,230.536,42.788Z" fill="#cafdff"/>
          <path d="M229.534,36.719c1.69.027,4.313.458,4.313,2.873,0,1.739-1.176,2.7-3.311,2.7-.416,0-.74-.012-1-.03V36.719m-.177-1q-.4,0-.823.025v7.391a9.621,9.621,0,0,0,2,.154c3,0,4.311-1.694,4.311-3.7,0-2.5-2.056-3.874-5.49-3.874Z"/>
        </g>
        <g>
          <path d="M31.8,56.494c-19.111,0-26.217-3.934-26.217-14.515A62.485,62.485,0,0,1,6.8,31.411H54.632c5.988,1.777,8.544,4.964,8.544,10.645C63.176,51.771,52.912,56.494,31.8,56.494Zm.208-21.276c-.275,0-.561.008-.853.026l-.47.027v8.273l.4.08a10.089,10.089,0,0,0,2.1.164c3.548,0,4.811-2.168,4.811-4.2C38,36.853,35.758,35.218,32.007,35.218Z" fill="#cafdff"/>
          <path d="M54.559,31.911c5.688,1.707,8.117,4.748,8.117,10.145,0,9.379-10.1,13.938-30.877,13.938-21.415,0-25.717-5.363-25.717-14.014A60.062,60.062,0,0,1,7.224,31.911H54.559M33.186,44.288c3.92,0,5.311-2.529,5.311-4.7a4.313,4.313,0,0,0-1.886-3.7,7.976,7.976,0,0,0-4.6-1.178c-.285,0-.58.009-.882.026l-.941.056v9.154l.8.161a10.553,10.553,0,0,0,2.2.173M54.7,30.911H6.384a65.538,65.538,0,0,0-1.3,11.069c0,10.317,6.391,15.014,26.717,15.014,24.485,0,31.877-6.391,31.877-14.938,0-5.563-2.39-9.212-8.972-11.145ZM33.186,43.288a9.621,9.621,0,0,1-2-.154V35.743c.282-.017.557-.025.823-.025,3.435,0,5.49,1.373,5.49,3.874,0,2-1.308,3.7-4.311,3.7Z"/>
        </g>
        <g>
          <path d="M117.191,56.494c-4.4,0-7.826-1.259-9.914-3.641-1.915-2.184-2.635-5.2-2.14-8.961l.074-.565H102.69l-.128.309C99.184,51.807,93.037,56.494,85.7,56.494c-5.616,0-9.77-1.58-12.347-4.693-3.731-4.509-3.41-11.254-2.484-16.119l.819-4.271H96.892a31.506,31.506,0,0,0-.374,3.639,2.071,2.071,0,0,0,2.04,2.271c1.679,0,2.883-1.935,3.676-5.91h24.52l-.2,1c-.4,1.893-.222,3.318.52,4.231a3.528,3.528,0,0,0,2.9,1.141,6.1,6.1,0,0,0,3.351-.9,17.311,17.311,0,0,1,.768,4.94C134.092,50.873,127.615,56.494,117.191,56.494Z" fill="#cafdff"/>
          <path d="M126.146,31.911l-.078.393c-.43,2.053-.221,3.618.62,4.653a4,4,0,0,0,3.285,1.326,6.9,6.9,0,0,0,3.04-.649,16.28,16.28,0,0,1,.579,4.191c0,8.74-6.284,14.169-16.4,14.169-4.249,0-7.547-1.2-9.538-3.471-1.816-2.07-2.5-4.952-2.02-8.565l.148-1.131h-3.425l-.256.618c-3.3,7.975-9.275,12.549-16.4,12.549-5.461,0-9.485-1.518-11.963-4.512-3.607-4.359-3.284-10.947-2.377-15.7l.74-3.866H96.32a26.535,26.535,0,0,0-.3,3.139,2.548,2.548,0,0,0,2.54,2.771c1.89,0,3.229-1.935,4.082-5.91h23.506m1.217-1H101.82c-.644,3.465-1.684,5.91-3.262,5.91a1.567,1.567,0,0,1-1.54-1.771,37.532,37.532,0,0,1,.448-4.139H71.273l-.895,4.677c-2.156,11.319,1,21.406,15.322,21.406,7.777,0,14.013-5.159,17.324-13.167h1.617c-1.155,8.778,4.312,13.167,12.55,13.167,11.473,0,17.4-6.622,17.4-15.169a18.593,18.593,0,0,0-1-5.774,5.263,5.263,0,0,1-3.618,1.232c-2.464,0-3.619-1.463-2.926-4.774l.316-1.6Z"/>
        </g>
        <g>
          <path d="M181.948,56.494c-6.007,0-9.008-2.831-11.665-7.081l-7.147-12.465-.089,1.694a83.9,83.9,0,0,0,.408,16.173A34.485,34.485,0,0,1,152,56.494c-4.794,0-8.421-1.446-10.779-4.3-2.966-3.583-3.857-9.449-2.512-16.516l.819-4.271h53.781l-1.768,17.215C190.941,54.066,187.984,56.494,181.948,56.494Z" fill="#cafdff"/>
          <path d="M192.75,31.911l-1.709,16.658c-.563,5.135-3.367,7.425-9.093,7.425-5.778,0-8.672-2.737-11.22-6.813l-6.314-11.01-1.688-2.943-.178,3.388a85.66,85.66,0,0,0,.357,15.861A34.651,34.651,0,0,1,152,55.994c-4.638,0-8.135-1.385-10.4-4.115-2.868-3.467-3.723-9.185-2.406-16.1l.741-3.866H192.75m1.108-1H139.11l-.9,4.677c-2.156,11.319,1,21.406,13.782,21.406a35.17,35.17,0,0,0,12.011-1.848,82.8,82.8,0,0,1-.461-16.477l6.313,11.01c2.695,4.312,5.852,7.315,12.088,7.315,6.314,0,9.471-2.695,10.087-8.316l1.823-17.767Z"/>
        </g>
        <g>
          <path d="M229.15,56.494c-19.112,0-26.217-3.934-26.217-14.515a62.38,62.38,0,0,1,1.221-10.568h47.829c5.988,1.777,8.544,4.964,8.544,10.645C260.527,51.771,250.263,56.494,229.15,56.494Zm.208-21.276c-.277,0-.561.008-.853.026l-.471.027v8.273l.4.08a10.077,10.077,0,0,0,2.1.164c3.547,0,4.811-2.168,4.811-4.2C235.347,36.853,233.108,35.218,229.358,35.218Z" fill="#cafdff"/>
          <path d="M251.909,31.911c5.688,1.707,8.118,4.748,8.118,10.145,0,9.379-10.1,13.938-30.877,13.938-21.415,0-25.717-5.363-25.717-14.014a60.165,60.165,0,0,1,1.141-10.069h47.335M230.536,44.288c3.92,0,5.311-2.529,5.311-4.7a4.313,4.313,0,0,0-1.886-3.7,7.976,7.976,0,0,0-4.6-1.178q-.427,0-.881.026l-.942.056v9.154l.8.161a10.541,10.541,0,0,0,2.2.173m21.519-13.377H203.734a65.518,65.518,0,0,0-1.3,11.069c0,10.317,6.39,15.014,26.717,15.014,24.484,0,31.877-6.391,31.877-14.938,0-5.563-2.392-9.212-8.972-11.145ZM230.536,43.288a9.621,9.621,0,0,1-2-.154V35.743q.425-.026.823-.025c3.434,0,5.49,1.373,5.49,3.874,0,2-1.309,3.7-4.311,3.7Z"/>
        </g>
        <g>
          <path d="M314.54,56.494c-4.4,0-7.825-1.259-9.914-3.641-1.915-2.184-2.635-5.2-2.139-8.961l.074-.565H300.04l-.128.309c-3.379,8.171-9.525,12.858-16.862,12.858-5.617,0-9.771-1.58-12.349-4.694-3.73-4.509-3.409-11.254-2.482-16.118l.817-4.271h25.206a31.485,31.485,0,0,0-.374,3.639,2.071,2.071,0,0,0,2.039,2.271c1.679,0,2.883-1.935,3.676-5.91H324.1l-.2,1c-.4,1.893-.221,3.318.521,4.231a3.526,3.526,0,0,0,2.9,1.141,6.1,6.1,0,0,0,3.352-.9,17.335,17.335,0,0,1,.769,4.94C331.443,50.873,324.966,56.494,314.54,56.494Z" fill="#cafdff"/>
          <path d="M323.5,31.911l-.078.393c-.43,2.053-.221,3.618.621,4.654a4,4,0,0,0,3.284,1.325,6.908,6.908,0,0,0,3.041-.649,16.251,16.251,0,0,1,.58,4.191c0,8.74-6.286,14.169-16.4,14.169-4.249,0-7.547-1.2-9.538-3.471-1.816-2.07-2.5-4.952-2.02-8.565l.149-1.131h-3.425l-.256.618c-3.3,7.975-9.276,12.549-16.4,12.549-5.461,0-9.486-1.518-11.963-4.512-3.607-4.359-3.284-10.947-2.377-15.706l.739-3.865H293.67a26.341,26.341,0,0,0-.3,3.139,2.547,2.547,0,0,0,2.539,2.771c1.89,0,3.229-1.935,4.083-5.91h23.5m1.218-1H299.17c-.644,3.465-1.684,5.91-3.263,5.91a1.567,1.567,0,0,1-1.539-1.771,37.532,37.532,0,0,1,.448-4.139H268.623l-.895,4.677c-2.157,11.319,1,21.406,15.322,21.406,7.776,0,14.013-5.159,17.324-13.167h1.616c-1.155,8.778,4.312,13.167,12.55,13.167,11.473,0,17.4-6.622,17.4-15.169a18.6,18.6,0,0,0-1-5.774,5.264,5.264,0,0,1-3.619,1.232c-2.463,0-3.619-1.463-2.926-4.774l.317-1.6Z"/>
        </g>
        <g>
          <path d="M379.3,56.494c-6.009,0-9.009-2.831-11.664-7.081l-7.148-12.465-.089,1.694a83.805,83.805,0,0,0,.409,16.173,34.493,34.493,0,0,1-11.459,1.679c-4.794,0-8.421-1.446-10.78-4.3-2.966-3.583-3.858-9.448-2.512-16.515l.817-4.271h53.782l-1.767,17.215C388.291,54.066,385.334,56.494,379.3,56.494Z" fill="#cafdff"/>
          <path d="M390.1,31.911l-1.71,16.658c-.562,5.135-3.366,7.425-9.092,7.425-5.779,0-8.673-2.737-11.22-6.813l-6.315-11.01-1.688-2.943-.178,3.388a85.543,85.543,0,0,0,.359,15.861,34.671,34.671,0,0,1-10.909,1.517c-4.638,0-8.136-1.385-10.395-4.115-2.869-3.467-3.723-9.186-2.406-16.1l.74-3.866H390.1m1.108-1H336.46l-.9,4.677c-2.156,11.319,1,21.406,13.783,21.406a35.182,35.182,0,0,0,12.012-1.848,82.794,82.794,0,0,1-.463-16.477l6.314,11.01c2.694,4.312,5.852,7.315,12.088,7.315,6.314,0,9.471-2.695,10.086-8.316l1.824-17.767Z"/>
        </g>
        <g>
          <path d="M417.491,56.494c-15.1,0-21.829-4.406-21.829-14.284A18.074,18.074,0,0,1,396.854,36c5.2,3.721,11.885,4.018,13.862,4.018,5.459,0,6.274-1.664,6.274-2.656,0-1.246-1.317-1.761-2.606-2.1l-6.015-1.465a21.326,21.326,0,0,1-5.986-2.383h38.8a14.911,14.911,0,0,1,1.449,6.718C442.631,49.628,433.233,56.494,417.491,56.494Z" fill="#cafdff"/>
          <path d="M440.868,31.911a14.583,14.583,0,0,1,1.263,6.218,15.612,15.612,0,0,1-6.052,12.829c-4.249,3.294-10.676,5.036-18.588,5.036-14.751,0-21.329-4.251-21.329-13.783a17.233,17.233,0,0,1,.947-5.435,25.47,25.47,0,0,0,13.607,3.74c5.6,0,6.774-1.717,6.774-3.157,0-1.8-2.087-2.349-3-2.588l-6.005-1.462a22.937,22.937,0,0,1-4.09-1.4h36.469m.619-1H400.76a20.136,20.136,0,0,0,7.491,3.369l6.006,1.463c1.463.385,2.233.846,2.233,1.616,0,1.31-1.924,2.157-5.774,2.157-4.234,0-9.933-1.078-14.09-4.312a18.726,18.726,0,0,0-1.464,7.007c0,9.162,5.621,14.783,22.329,14.783,17.016,0,25.64-7.7,25.64-18.865a15.186,15.186,0,0,0-1.644-7.218Z"/>
        </g>
      </g>
    </g>
    <g>
      <path d="M484.8.5a29.521,29.521,0,0,0-29.52,29.521h59.041A29.521,29.521,0,0,0,484.8.5Z" stroke="#000" stroke-linecap="round" stroke-linejoin="round"/>
      <g>
        <path d="M485.5,57c-15.451,0-28.1-4.934-28.749-11.1h57.5C513.6,52.066,500.954,57,485.5,57Z" fill="#cafdff"/>
        <path d="M513.658,46.4c-1.336,5.57-13.685,10.1-28.155,10.1s-26.819-4.53-28.155-10.1h56.31m1.12-1h-58.55c0,6.683,13.107,12.1,29.275,12.1s29.275-5.417,29.275-12.1Z"/>
      </g>
      <path d="M477.562,7.566l.466.466a1.121,1.121,0,0,1-.5,1.875l-.636.171-.637.171a1.122,1.122,0,0,1-1.373-1.373l.171-.637.171-.636a1.121,1.121,0,0,1,1.875-.5Z" fill="#cafdff"/>
      <path d="M485.131,11.259h.659a1.121,1.121,0,0,1,.971,1.681l-.33.571-.329.571a1.121,1.121,0,0,1-1.941,0l-.33-.571-.329-.571a1.12,1.12,0,0,1,.97-1.681Z" fill="#cafdff"/>
      <path d="M492.112,7.132l.466-.466a1.12,1.12,0,0,1,1.875.5l.171.637.17.636a1.12,1.12,0,0,1-1.372,1.373l-.637-.171-.637-.17a1.121,1.121,0,0,1-.5-1.875Z" fill="#cafdff"/>
    </g>
  </g>
</svg>
