<svg xmlns="http://www.w3.org/2000/svg" width="29.175" height="27.925" viewBox="0 0 29.175 27.925">
  <g>
    <path d="M27.972,12.35l-2.063-.608A1.681,1.681,0,0,1,25.052,9.1l1.312-1.7a1.682,1.682,0,0,0-1.9-2.61l-2.026.721A1.681,1.681,0,0,1,20.2,3.881l.059-2.15a1.681,1.681,0,0,0-3.067-1L15.974,2.508a1.681,1.681,0,0,1-2.774,0L11.985.735a1.681,1.681,0,0,0-3.068,1l.06,2.15a1.681,1.681,0,0,1-2.244,1.63L4.707,4.79a1.681,1.681,0,0,0-1.9,2.61L4.122,9.1a1.681,1.681,0,0,1-.857,2.638L1.2,12.35A1.635,1.635,0,0,0,.01,13.774H29.164A1.635,1.635,0,0,0,27.972,12.35Z"/>
    <g>
      <path d="M18.557,27.425a1.134,1.134,0,0,1-.955-.517l-1.216-1.774a2.18,2.18,0,0,0-3.6,0l-1.215,1.774a1.135,1.135,0,0,1-.955.517,1.236,1.236,0,0,1-.883-.368,1.14,1.14,0,0,1-.318-.85l.06-2.149a2.161,2.161,0,0,0-.615-1.579,2.171,2.171,0,0,0-2.3-.536l-2.027.72a1.224,1.224,0,0,1-.416.075,1.186,1.186,0,0,1-1.045-.677,1.139,1.139,0,0,1,.13-1.231l1.312-1.7A2.181,2.181,0,0,0,3.407,15.7L1.344,15.1a1.131,1.131,0,0,1-.8-.822h28.1a1.131,1.131,0,0,1-.805.822l-2.062.607a2.181,2.181,0,0,0-1.112,3.423l1.311,1.7a1.14,1.14,0,0,1,.131,1.231,1.186,1.186,0,0,1-1.047.677h0a1.228,1.228,0,0,1-.416-.075l-2.025-.72a2.171,2.171,0,0,0-2.3.536,2.161,2.161,0,0,0-.615,1.579l.059,2.149a1.139,1.139,0,0,1-.317.85A1.238,1.238,0,0,1,18.557,27.425Z" fill="#cafdff"/>
      <path d="M27.154,14.774l-1.527.45a2.68,2.68,0,0,0-1.367,4.207l1.311,1.7a.635.635,0,0,1,.079.7.692.692,0,0,1-.6.4.736.736,0,0,1-.249-.046l-2.025-.72a2.68,2.68,0,0,0-3.579,2.6l.059,2.149a.645.645,0,0,1-.176.487.742.742,0,0,1-.524.217.631.631,0,0,1-.542-.3L16.8,24.851a2.681,2.681,0,0,0-4.424,0L11.16,26.625a.632.632,0,0,1-.542.3.745.745,0,0,1-.525-.217.645.645,0,0,1-.176-.487l.06-2.149A2.661,2.661,0,0,0,9.22,22.13,2.669,2.669,0,0,0,6.4,21.472l-2.027.72a.723.723,0,0,1-.249.046.692.692,0,0,1-.6-.4.636.636,0,0,1,.078-.7l1.311-1.7a2.68,2.68,0,0,0-1.367-4.207l-1.526-.45H27.154m2.01-1H.01a1.654,1.654,0,0,0,1.193,1.8l2.062.608a1.681,1.681,0,0,1,.857,2.638l-1.311,1.7a1.687,1.687,0,0,0,1.311,2.713,1.712,1.712,0,0,0,.584-.1l2.027-.72a1.677,1.677,0,0,1,2.244,1.63l-.06,2.15a1.675,1.675,0,0,0,1.7,1.731,1.63,1.63,0,0,0,1.367-.735L13.2,25.417a1.679,1.679,0,0,1,2.773,0L17.19,27.19a1.63,1.63,0,0,0,1.367.735,1.674,1.674,0,0,0,1.7-1.731l-.059-2.15a1.677,1.677,0,0,1,2.244-1.63l2.025.72a1.721,1.721,0,0,0,.584.1,1.687,1.687,0,0,0,1.313-2.713l-1.312-1.7a1.681,1.681,0,0,1,.858-2.638l2.062-.608a1.652,1.652,0,0,0,1.192-1.8Z"/>
    </g>
  </g>
</svg>
