<svg xmlns="http://www.w3.org/2000/svg" width="277.017" height="251.451" viewBox="0 0 277.017 251.451">
  <g>
    <path d="M137.688.5A137.188,137.188,0,0,0,.5,137.688H274.876A137.188,137.188,0,0,0,137.688.5Z" stroke="#cafdff" stroke-linecap="round" stroke-linejoin="round"/>
    <g>
      <path d="M140.971,250.95c-74.334,0-134.884-24.73-135.54-55.232h271.08C275.856,226.22,215.305,250.95,140.971,250.95Z" fill="#cafdff"/>
      <path d="M276,196.218c-.622,14.218-14.489,27.621-39.207,37.838-25.577,10.572-59.606,16.395-95.817,16.395s-70.239-5.823-95.817-16.395c-24.718-10.217-38.585-23.62-39.207-37.838H276m1.022-1H4.925c0,31.056,60.91,56.233,136.046,56.233s136.046-25.177,136.046-56.233Z"/>
    </g>
    <path d="M104.066,33.338l2.166,2.167a5.208,5.208,0,0,1-2.335,8.713l-2.959.793L97.98,45.8A5.208,5.208,0,0,1,91.6,39.425l.793-2.959.792-2.959a5.209,5.209,0,0,1,8.714-2.335Z" fill="#cafdff"/>
    <path d="M139.244,50.5h3.063a5.208,5.208,0,0,1,4.51,7.812l-1.531,2.653-1.532,2.653a5.208,5.208,0,0,1-9.021,0L133.2,60.965l-1.532-2.653a5.208,5.208,0,0,1,4.511-7.812Z" fill="#cafdff"/>
    <path d="M171.685,31.318l2.166-2.166a5.209,5.209,0,0,1,8.714,2.335l.793,2.959.792,2.959a5.208,5.208,0,0,1-6.378,6.379l-2.959-.793-2.959-.793a5.209,5.209,0,0,1-2.335-8.714Z" fill="#cafdff"/>
  </g>
</svg>
